<?xml version="1.0" encoding="UTF-8"?>
<svg xmlns="http://www.w3.org/2000/svg" xmlns:xlink="http://www.w3.org/1999/xlink" width="px" height="px" viewBox="0 0 600 600" version="1.1">
<g id="surface1">
<path style=" stroke:none;fill-rule:nonzero;fill:rgb(22.745098%,30.588236%,33.333334%);fill-opacity:1;" d="M 341.082031 245.082031 L 388.125 245.082031 L 388.125 293.195312 L 411.9375 293.195312 C 423.0625 293.144531 434.105469 291.296875 444.636719 287.71875 C 450.171875 285.886719 455.503906 283.480469 460.539062 280.539062 C 454.09375 271.621094 450.269531 261.082031 449.492188 250.105469 C 447.519531 234.089844 451.640625 217.921875 461.042969 204.804688 L 465.992188 199.085938 L 471.882812 203.832031 C 487.5 215.285156 498.082031 232.339844 501.414062 251.417969 C 519.574219 245.832031 539.210938 247.660156 556.03125 256.5 L 562.5 260.25 L 559.105469 266.886719 C 545.03125 290.628906 518.011719 303.515625 490.707031 299.511719 C 449.960938 401.007812 361.332031 449.0625 253.667969 449.0625 C 199.050781 452.3125 147.035156 425.410156 118.125 378.957031 L 117.65625 378.148438 L 113.417969 369.542969 C 103.835938 347.800781 100.09375 323.933594 102.5625 300.300781 L 103.21875 293.175781 L 143.398438 293.175781 L 143.398438 245.082031 L 190.460938 245.082031 L 190.460938 198.019531 L 284.585938 198.019531 L 284.585938 150.957031 L 341.0625 150.957031 L 341.0625 245.082031 Z M 341.082031 245.082031 "/>
<path style=" stroke:none;fill-rule:nonzero;fill:rgb(0%,66.666669%,85.490197%);fill-opacity:1;" d="M 493.574219 262.894531 C 494.230469 241.898438 484.226562 222 466.988281 210 C 451.851562 232.21875 454.101562 261.953125 472.40625 281.644531 C 454.933594 294.59375 433.683594 301.425781 411.9375 301.085938 L 110.304688 301.085938 C 107.71875 325.15625 112.054688 349.46875 122.8125 371.15625 L 126.242188 377.4375 C 128.414062 381.121094 130.785156 384.683594 133.351562 388.105469 C 145.75 388.90625 157.179688 389.1875 167.644531 388.949219 C 184.597656 389.054688 201.46875 386.59375 217.6875 381.65625 C 218.363281 389.082031 216.601562 389.644531 214.78125 390.148438 C 203.496094 393.304688 191.890625 395.191406 180.1875 395.773438 C 181.011719 395.773438 179.324219 395.90625 179.324219 395.90625 L 177.789062 396.039062 C 172.332031 396.335938 166.539062 396.414062 160.445312 396.414062 C 153.863281 396.414062 147.320312 396.28125 140.136719 395.925781 L 139.949219 396.054688 C 169.539062 426.832031 210.988281 443.308594 253.632812 441.242188 C 357.882812 441.242188 446.304688 395.023438 485.476562 291.242188 C 513.261719 294.09375 539.960938 287.007812 552.09375 263.304688 C 533.726562 253.992188 512.050781 253.839844 493.554688 262.894531 "/>
<path style=" stroke:none;fill-rule:nonzero;fill:rgb(15.294118%,72.549021%,92.54902%);fill-opacity:1;" d="M 493.574219 262.894531 C 494.230469 241.898438 484.226562 222 466.988281 210 C 451.851562 232.21875 454.101562 261.953125 472.40625 281.644531 C 454.933594 294.59375 433.683594 301.425781 411.9375 301.085938 L 128.175781 301.085938 C 125.027344 335.273438 140.011719 368.609375 167.664062 388.949219 C 184.617188 389.054688 201.488281 386.59375 217.707031 381.65625 C 218.382812 389.082031 216.617188 389.644531 214.800781 390.148438 C 203.210938 393.398438 191.304688 395.371094 179.289062 396.039062 L 178.929688 395.625 C 214.40625 413.832031 265.855469 413.757812 324.84375 391.105469 C 392.148438 363.914062 451.03125 319.339844 495.46875 261.9375 L 493.59375 262.835938 "/>
<path style=" stroke:none;fill-rule:nonzero;fill:rgb(3.137255%,54.901963%,72.549021%);fill-opacity:1;" d="M 110.867188 332.476562 C 112.644531 345.9375 116.683594 359 122.8125 371.117188 L 126.242188 377.398438 C 128.414062 381.085938 130.785156 384.644531 133.351562 388.070312 C 145.75 388.867188 157.179688 389.148438 167.644531 388.914062 C 184.597656 389.015625 201.46875 386.558594 217.6875 381.617188 C 218.363281 389.042969 216.601562 389.605469 214.78125 390.113281 C 203.207031 393.3125 191.316406 395.242188 179.324219 395.867188 L 177.449219 395.867188 C 171.992188 396.167969 166.199219 396.355469 160.164062 396.355469 C 153.582031 396.355469 146.867188 396.226562 139.539062 395.867188 C 169.214844 426.664062 210.742188 443.15625 253.460938 441.113281 C 342.710938 441.113281 420.335938 407.230469 465.335938 332.363281 Z M 110.867188 332.476562 "/>
<path style=" stroke:none;fill-rule:nonzero;fill:rgb(1.176471%,61.176473%,78.039217%);fill-opacity:1;" d="M 130.875 332.476562 C 135.421875 355.3125 148.589844 375.523438 167.644531 388.914062 C 184.597656 389.015625 201.46875 386.558594 217.6875 381.617188 C 218.363281 389.042969 216.601562 389.605469 214.78125 390.113281 C 203.148438 393.304688 191.203125 395.234375 179.15625 395.867188 C 214.632812 414.074219 265.929688 413.8125 324.898438 391.144531 C 361.289062 376.8125 395.285156 357.023438 425.71875 332.457031 Z M 130.875 332.476562 "/>
<path style=" stroke:none;fill-rule:nonzero;fill:rgb(0%,67.450982%,82.745099%);fill-opacity:1;" d="M 185.417969 256.332031 L 188.644531 256.332031 L 188.644531 290.324219 L 185.417969 290.324219 Z M 179.230469 256.332031 L 182.585938 256.332031 L 182.585938 290.324219 L 179.230469 290.324219 Z M 173.042969 256.332031 L 176.398438 256.332031 L 176.398438 290.324219 L 173.0625 290.324219 L 173.0625 256.332031 Z M 166.855469 256.332031 L 170.210938 256.332031 L 170.210938 290.324219 L 166.875 290.324219 L 166.875 256.332031 Z M 160.667969 256.332031 L 164.023438 256.332031 L 164.023438 290.324219 L 160.6875 290.324219 L 160.6875 256.332031 Z M 154.613281 256.332031 L 157.835938 256.332031 L 157.835938 290.324219 L 154.648438 290.324219 L 154.648438 256.332031 Z M 151.21875 252.9375 L 192 252.9375 L 192 293.738281 L 151.238281 293.738281 L 151.238281 252.9375 Z M 151.21875 252.9375 "/>
<path style=" stroke:none;fill-rule:nonzero;fill:rgb(0%,67.450982%,82.745099%);fill-opacity:1;" d="M 232.5 209.269531 L 235.726562 209.269531 L 235.726562 243.261719 L 232.5 243.261719 Z M 226.3125 209.269531 L 229.667969 209.269531 L 229.667969 243.261719 L 226.3125 243.261719 Z M 220.125 209.269531 L 223.480469 209.269531 L 223.480469 243.261719 L 220.125 243.261719 Z M 213.9375 209.269531 L 217.292969 209.269531 L 217.292969 243.261719 L 213.9375 243.261719 Z M 207.75 209.269531 L 211.085938 209.269531 L 211.085938 243.261719 L 207.75 243.261719 Z M 201.695312 209.269531 L 204.917969 209.269531 L 204.917969 243.261719 L 201.695312 243.261719 Z M 198.300781 205.875 L 239.101562 205.875 L 239.101562 246.675781 L 198.320312 246.675781 L 198.320312 205.855469 Z M 198.300781 205.875 "/>
<path style=" stroke:none;fill-rule:nonzero;fill:rgb(14.901961%,76.078433%,93.333334%);fill-opacity:1;" d="M 232.5 256.332031 L 235.726562 256.332031 L 235.726562 290.324219 L 232.5 290.324219 Z M 226.3125 256.332031 L 229.667969 256.332031 L 229.667969 290.324219 L 226.3125 290.324219 Z M 220.125 256.332031 L 223.480469 256.332031 L 223.480469 290.324219 L 220.125 290.324219 Z M 213.9375 256.332031 L 217.292969 256.332031 L 217.292969 290.324219 L 213.9375 290.324219 Z M 207.75 256.332031 L 211.085938 256.332031 L 211.085938 290.324219 L 207.75 290.324219 Z M 201.695312 256.332031 L 204.917969 256.332031 L 204.917969 290.324219 L 201.695312 290.324219 Z M 198.300781 252.9375 L 239.101562 252.9375 L 239.101562 293.738281 L 198.320312 293.738281 L 198.320312 252.9375 Z M 198.300781 252.9375 "/>
<path style=" stroke:none;fill-rule:nonzero;fill:rgb(0%,67.450982%,82.745099%);fill-opacity:1;" d="M 279.542969 256.332031 L 282.769531 256.332031 L 282.769531 290.324219 L 279.542969 290.324219 Z M 273.355469 256.332031 L 276.710938 256.332031 L 276.710938 290.324219 L 273.375 290.324219 L 273.375 256.332031 Z M 267.167969 256.332031 L 270.523438 256.332031 L 270.523438 290.324219 L 267.1875 290.324219 L 267.1875 256.332031 Z M 260.980469 256.332031 L 264.375 256.332031 L 264.375 290.324219 L 261.019531 290.324219 L 261.019531 256.332031 Z M 254.792969 256.332031 L 258.148438 256.332031 L 258.148438 290.324219 L 254.792969 290.324219 Z M 248.738281 256.332031 L 251.960938 256.332031 L 251.960938 290.324219 L 248.738281 290.324219 Z M 245.34375 252.9375 L 286.144531 252.9375 L 286.144531 293.738281 L 245.382812 293.738281 L 245.382812 252.9375 Z M 245.34375 252.9375 "/>
<path style=" stroke:none;fill-rule:nonzero;fill:rgb(14.901961%,76.078433%,93.333334%);fill-opacity:1;" d="M 279.542969 209.269531 L 282.769531 209.269531 L 282.769531 243.261719 L 279.542969 243.261719 Z M 273.355469 209.269531 L 276.710938 209.269531 L 276.710938 243.261719 L 273.375 243.261719 L 273.375 209.269531 Z M 267.167969 209.269531 L 270.523438 209.269531 L 270.523438 243.261719 L 267.1875 243.261719 L 267.1875 209.269531 Z M 260.980469 209.269531 L 264.375 209.269531 L 264.375 243.261719 L 261.019531 243.261719 L 261.019531 209.269531 Z M 254.792969 209.269531 L 258.148438 209.269531 L 258.148438 243.261719 L 254.792969 243.261719 Z M 248.738281 209.269531 L 251.960938 209.269531 L 251.960938 243.261719 L 248.738281 243.261719 Z M 245.34375 205.875 L 286.144531 205.875 L 286.144531 246.675781 L 245.382812 246.675781 L 245.382812 205.855469 Z M 245.34375 205.875 "/>
<path style=" stroke:none;fill-rule:nonzero;fill:rgb(14.901961%,76.078433%,93.333334%);fill-opacity:1;" d="M 326.625 256.332031 L 329.851562 256.332031 L 329.851562 290.324219 L 326.625 290.324219 Z M 320.4375 256.332031 L 323.792969 256.332031 L 323.792969 290.324219 L 320.4375 290.324219 Z M 314.25 256.332031 L 317.605469 256.332031 L 317.605469 290.324219 L 314.25 290.324219 Z M 308.0625 256.332031 L 311.417969 256.332031 L 311.417969 290.324219 L 308.0625 290.324219 Z M 301.875 256.332031 L 305.230469 256.332031 L 305.230469 290.324219 L 301.875 290.324219 Z M 295.820312 256.332031 L 299.042969 256.332031 L 299.042969 290.324219 L 295.820312 290.324219 Z M 292.5 252.9375 L 333.300781 252.9375 L 333.300781 293.738281 L 292.5 293.738281 Z M 292.5 252.9375 "/>
<path style=" stroke:none;fill-rule:nonzero;fill:rgb(0%,67.450982%,82.745099%);fill-opacity:1;" d="M 326.625 209.269531 L 329.851562 209.269531 L 329.851562 243.261719 L 326.625 243.261719 Z M 320.4375 209.269531 L 323.792969 209.269531 L 323.792969 243.261719 L 320.4375 243.261719 Z M 314.25 209.269531 L 317.605469 209.269531 L 317.605469 243.261719 L 314.25 243.261719 Z M 308.0625 209.269531 L 311.417969 209.269531 L 311.417969 243.261719 L 308.0625 243.261719 Z M 301.875 209.269531 L 305.230469 209.269531 L 305.230469 243.261719 L 301.875 243.261719 Z M 295.820312 209.269531 L 299.042969 209.269531 L 299.042969 243.261719 L 295.820312 243.261719 Z M 292.425781 205.875 L 333.226562 205.875 L 333.226562 246.675781 L 292.5 246.675781 L 292.5 205.855469 Z M 292.425781 205.875 "/>
<path style=" stroke:none;fill-rule:nonzero;fill:rgb(14.901961%,76.078433%,93.333334%);fill-opacity:1;" d="M 326.625 162.1875 L 329.851562 162.1875 L 329.851562 196.179688 L 326.625 196.179688 Z M 320.4375 162.1875 L 323.792969 162.1875 L 323.792969 196.179688 L 320.4375 196.179688 Z M 314.25 162.1875 L 317.605469 162.1875 L 317.605469 196.179688 L 314.25 196.179688 Z M 308.0625 162.1875 L 311.417969 162.1875 L 311.417969 196.179688 L 308.0625 196.179688 Z M 301.875 162.1875 L 305.230469 162.1875 L 305.230469 196.179688 L 301.875 196.179688 Z M 295.820312 162.1875 L 299.042969 162.1875 L 299.042969 196.179688 L 295.820312 196.179688 Z M 292.5 158.792969 L 333.300781 158.792969 L 333.300781 199.59375 L 292.5 199.59375 Z M 292.5 158.792969 "/>
<path style=" stroke:none;fill-rule:nonzero;fill:rgb(0%,67.450982%,82.745099%);fill-opacity:1;" d="M 373.6875 256.332031 L 376.875 256.332031 L 376.875 290.324219 L 373.6875 290.324219 Z M 367.5 256.332031 L 370.835938 256.332031 L 370.835938 290.324219 L 367.5 290.324219 Z M 361.3125 256.332031 L 364.667969 256.332031 L 364.667969 290.324219 L 361.3125 290.324219 Z M 355.125 256.332031 L 358.480469 256.332031 L 358.480469 290.324219 L 355.125 290.324219 Z M 348.9375 256.332031 L 352.292969 256.332031 L 352.292969 290.324219 L 348.9375 290.324219 Z M 342.882812 256.332031 L 346.105469 256.332031 L 346.105469 290.324219 L 342.882812 290.324219 Z M 339.488281 252.9375 L 380.289062 252.9375 L 380.289062 293.738281 L 339.507812 293.738281 L 339.507812 252.9375 Z M 339.488281 252.9375 "/>
<path style=" stroke:none;fill-rule:nonzero;fill:rgb(83.529413%,93.333334%,94.901961%);fill-opacity:1;" d="M 236.550781 359.867188 C 242.761719 359.867188 247.800781 364.90625 247.800781 371.117188 C 247.800781 377.332031 242.761719 382.367188 236.550781 382.367188 C 230.335938 382.367188 225.300781 377.332031 225.300781 371.117188 C 225.300781 364.90625 230.335938 359.867188 236.550781 359.867188 "/>
<path style=" stroke:none;fill-rule:nonzero;fill:rgb(22.745098%,30.588236%,33.333334%);fill-opacity:1;" d="M 236.550781 363.054688 C 245.355469 371.300781 244.414062 375.082031 241.679688 377.339844 C 238.941406 379.59375 235.050781 379.800781 232.09375 377.839844 C 229.136719 375.878906 227.808594 372.21875 228.820312 368.820312 C 229.832031 365.417969 232.945312 363.082031 236.492188 363.054688 "/>
<path style=" stroke:none;fill-rule:nonzero;fill:rgb(22.745098%,30.588236%,33.333334%);fill-opacity:1;" d="M 37.5 336.542969 L 561 336.542969 C 549.601562 333.65625 524.945312 329.757812 528.992188 314.8125 C 508.273438 338.792969 458.289062 331.6875 445.667969 319.820312 C 431.625 340.199219 349.835938 332.457031 344.136719 316.574219 C 326.53125 337.199219 271.949219 337.199219 254.34375 316.574219 C 248.71875 332.457031 166.855469 340.199219 152.8125 319.820312 C 140.195312 331.648438 90.226562 338.792969 69.488281 314.8125 C 73.554688 329.8125 48.863281 333.65625 37.480469 336.542969 "/>
<path style=" stroke:none;fill-rule:nonzero;fill:rgb(75.294119%,85.882354%,88.235295%);fill-opacity:1;" d="M 266.457031 440.960938 C 243.433594 431.148438 224.972656 412.992188 214.78125 390.132812 C 202.605469 393.359375 190.113281 395.246094 177.523438 395.757812 C 172.074219 396.054688 166.34375 396.210938 160.332031 396.226562 C 153.40625 396.226562 146.105469 396.019531 138.429688 395.605469 C 168.394531 426.808594 210.449219 443.4375 253.648438 441.167969 C 257.949219 441.167969 262.21875 441.085938 266.457031 440.925781 "/>
<path style=" stroke:none;fill-rule:nonzero;fill:rgb(83.529413%,93.333334%,94.901961%);fill-opacity:1;" d="M 225.132812 408.242188 C 221.042969 402.59375 217.574219 396.519531 214.78125 390.132812 C 202.605469 393.359375 190.113281 395.246094 177.523438 395.757812 C 192.347656 403.1875 208.566406 407.429688 225.132812 408.207031 "/>
</g>
</svg>
