<?xml version="1.0" encoding="UTF-8"?>
<svg xmlns="http://www.w3.org/2000/svg" xmlns:xlink="http://www.w3.org/1999/xlink" width="px" height="px" viewBox="0 0 600 600" version="1.1">
<g id="surface1">
<path style=" stroke:none;fill-rule:nonzero;fill:rgb(93.333334%,31.764707%,23.137255%);fill-opacity:1;" d="M 48.476562 326.496094 C 33.839844 311.863281 33.839844 288.136719 48.476562 273.503906 L 273.503906 48.476562 C 288.136719 33.839844 311.863281 33.839844 326.496094 48.476562 L 551.523438 273.503906 C 566.15625 288.136719 566.15625 311.863281 551.523438 326.496094 L 326.496094 551.523438 C 311.863281 566.15625 288.136719 566.15625 273.503906 551.523438 Z M 48.476562 326.496094 "/>
<path style=" stroke:none;fill-rule:nonzero;fill:rgb(100%,100%,100%);fill-opacity:1;" d="M 227.792969 94.902344 L 205.003906 117.691406 L 263.859375 176.546875 C 261.476562 181.652344 260.148438 187.351562 260.148438 193.359375 C 260.148438 210.414062 270.863281 224.964844 285.929688 230.648438 L 285.929688 374.621094 C 270.863281 380.304688 260.148438 394.855469 260.148438 411.910156 C 260.148438 433.917969 277.988281 451.753906 299.992188 451.753906 C 321.996094 451.753906 339.835938 433.917969 339.835938 411.910156 C 339.835938 396.449219 331.03125 383.042969 318.15625 376.441406 L 318.15625 230.84375 L 374.417969 287.105469 C 372.152344 292.109375 370.890625 297.664062 370.890625 303.515625 C 370.890625 325.519531 388.730469 343.359375 410.734375 343.359375 C 432.742188 343.359375 450.578125 325.519531 450.578125 303.515625 C 450.578125 281.507812 432.742188 263.671875 410.734375 263.671875 C 406.457031 263.671875 402.339844 264.34375 398.480469 265.589844 L 338.058594 205.167969 C 339.214844 201.4375 339.835938 197.46875 339.835938 193.359375 C 339.835938 171.351562 321.996094 153.511719 299.992188 153.511719 C 295.878906 153.511719 291.914062 154.136719 288.183594 155.292969 Z M 227.792969 94.902344 "/>
</g>
</svg>
