<?xml version="1.0" encoding="UTF-8"?>
<svg xmlns="http://www.w3.org/2000/svg" xmlns:xlink="http://www.w3.org/1999/xlink" width="px" height="px" viewBox="0 0 600 600" version="1.1">
<g id="surface1">
<path style=" stroke:none;fill-rule:nonzero;fill:rgb(100%,79.215688%,15.686275%);fill-opacity:1;" d="M 37.5 37.5 L 562.5 37.5 L 562.5 562.5 L 37.5 562.5 Z M 37.5 37.5 "/>
<path style=" stroke:none;fill-rule:nonzero;fill:rgb(24.313726%,24.313726%,24.313726%);fill-opacity:1;" d="M 356.25 474.148438 L 394.902344 448.570312 C 397.933594 458.085938 417.117188 480.691406 441.347656 480.691406 C 465.578125 480.691406 476.828125 467.457031 476.828125 458.679688 C 476.828125 434.769531 452.085938 426.339844 440.203125 422.292969 C 438.261719 421.632812 436.667969 421.089844 435.578125 420.613281 C 435.015625 420.371094 434.171875 420.046875 433.085938 419.632812 C 419.867188 414.582031 371.105469 395.953125 371.105469 341.949219 C 371.105469 282.46875 428.507812 275.628906 441.492188 275.628906 C 449.984375 275.628906 490.816406 276.667969 511.152344 314.886719 L 473.652344 341.058594 C 465.433594 324.402344 451.773438 318.902344 443.367188 318.902344 C 422.597656 318.902344 418.269531 334.125 418.269531 341.058594 C 418.269531 360.507812 440.835938 369.222656 459.886719 376.582031 C 464.871094 378.507812 469.617188 380.339844 473.652344 382.25 C 494.421875 392.0625 525 408.125 525 458.679688 C 525 484.003906 503.761719 525.003906 450.289062 525.003906 C 378.460938 525.003906 359.421875 481.878906 356.25 474.148438 Z M 356.25 474.148438 "/>
<path style=" stroke:none;fill-rule:nonzero;fill:rgb(24.313726%,24.313726%,24.313726%);fill-opacity:1;" d="M 168.75 479.226562 L 209.039062 453.660156 C 212.195312 463.171875 224.460938 480.710938 242.257812 480.710938 C 260.058594 480.710938 269.167969 462.429688 269.167969 453.660156 L 269.167969 281.253906 L 318.714844 281.253906 L 318.714844 453.660156 C 319.519531 477.441406 306.328125 525.003906 248.121094 525.003906 C 194.605469 525.003906 172.359375 493.199219 168.75 479.226562 Z M 168.75 479.226562 "/>
</g>
</svg>
