<?xml version="1.0" encoding="UTF-8"?>
<svg xmlns="http://www.w3.org/2000/svg" xmlns:xlink="http://www.w3.org/1999/xlink" width="px" height="px" viewBox="0 0 600 600" version="1.1">
<g id="surface1">
<path style=" stroke:none;fill-rule:nonzero;fill:rgb(0%,0%,0%);fill-opacity:1;" d="M 588.65625 359.285156 C 585.164062 348.71875 576.027344 341.363281 564.210938 339.59375 C 558.636719 338.761719 552.253906 339.117188 544.703125 340.675781 C 531.539062 343.390625 521.773438 344.425781 514.644531 344.625 C 541.546875 299.203125 563.421875 247.410156 576.015625 198.652344 C 596.378906 119.8125 585.496094 83.898438 572.78125 67.652344 C 539.128906 24.652344 490.03125 1.550781 430.800781 0.84375 C 399.203125 0.460938 371.464844 6.699219 356.992188 11.183594 C 343.519531 8.808594 329.035156 7.480469 313.835938 7.234375 C 285.339844 6.78125 260.164062 12.992188 238.65625 25.757812 C 226.746094 21.730469 207.632812 16.050781 185.558594 12.429688 C 133.644531 3.90625 91.804688 10.546875 61.199219 32.167969 C 24.140625 58.34375 6.960938 103.828125 10.136719 167.351562 C 11.148438 187.519531 22.429688 248.882812 40.191406 307.078125 C 50.402344 340.527344 61.289062 368.304688 72.550781 389.644531 C 88.519531 419.90625 105.609375 437.726562 124.792969 444.128906 C 135.546875 447.710938 155.082031 450.21875 175.628906 433.105469 C 178.234375 436.257812 181.710938 439.394531 186.320312 442.304688 C 192.175781 445.996094 199.339844 449.015625 206.492188 450.804688 C 232.265625 457.246094 256.410156 455.636719 277.007812 446.605469 C 277.132812 450.269531 277.230469 453.769531 277.3125 456.789062 C 277.449219 461.691406 277.585938 466.5 277.765625 470.996094 C 278.988281 501.390625 281.054688 525.023438 287.183594 541.5625 C 287.519531 542.46875 287.96875 543.855469 288.449219 545.328125 C 291.503906 554.6875 296.617188 570.355469 309.621094 582.625 C 323.085938 595.335938 339.375 599.234375 354.292969 599.234375 C 361.773438 599.234375 368.914062 598.253906 375.175781 596.910156 C 397.492188 592.128906 422.839844 584.839844 441.175781 558.730469 C 458.511719 534.050781 466.941406 496.875 468.464844 438.300781 C 468.664062 436.644531 468.84375 435.0625 469.019531 433.554688 L 469.382812 430.460938 L 473.46875 430.816406 L 474.519531 430.886719 C 497.253906 431.925781 525.046875 427.105469 542.117188 419.175781 C 555.605469 412.914062 598.832031 390.09375 588.65625 359.285156 "/>
<path style=" stroke:none;fill-rule:nonzero;fill:rgb(20%,40.392157%,56.862748%);fill-opacity:1;" d="M 549.785156 365.277344 C 482.195312 379.21875 477.546875 356.335938 477.546875 356.335938 C 548.910156 250.441406 578.746094 116.027344 553.003906 83.128906 C 482.765625 -6.609375 361.1875 35.832031 359.15625 36.933594 L 358.503906 37.050781 C 345.148438 34.277344 330.207031 32.628906 313.410156 32.351562 C 282.828125 31.851562 259.628906 40.371094 242.023438 53.71875 C 242.023438 53.71875 25.136719 -35.628906 35.226562 166.09375 C 37.371094 209.007812 96.734375 490.804688 167.539062 405.6875 C 193.417969 374.5625 218.425781 348.246094 218.425781 348.246094 C 230.84375 356.496094 245.710938 360.707031 261.296875 359.195312 L 262.507812 358.167969 C 262.132812 362.03125 262.304688 365.8125 262.992188 370.285156 C 244.753906 390.664062 250.113281 394.242188 213.648438 401.75 C 176.753906 409.355469 198.425781 422.890625 212.578125 426.433594 C 229.738281 430.71875 269.425781 436.796875 296.246094 399.253906 L 295.175781 403.539062 C 302.324219 409.261719 307.339844 440.773438 306.5 469.339844 C 305.660156 497.902344 305.097656 517.511719 310.726562 532.832031 C 316.363281 548.148438 321.972656 582.617188 369.910156 572.34375 C 409.960938 563.761719 430.71875 541.519531 433.605469 504.414062 C 435.65625 478.035156 440.292969 481.9375 440.585938 458.351562 L 444.304688 447.1875 C 448.59375 411.433594 444.988281 399.894531 469.660156 405.261719 L 475.660156 405.789062 C 493.820312 406.613281 517.59375 402.867188 531.546875 396.382812 C 561.585938 382.441406 579.40625 359.160156 549.78125 365.277344 L 549.785156 365.277344 "/>
<path style=" stroke:none;fill-rule:nonzero;fill:rgb(100%,100%,100%);fill-opacity:1;" d="M 254.71875 185.285156 C 248.628906 184.4375 243.113281 185.21875 240.320312 187.335938 C 238.753906 188.523438 238.265625 189.898438 238.132812 190.847656 C 237.785156 193.359375 239.542969 196.136719 240.625 197.566406 C 243.683594 201.621094 248.152344 204.410156 252.574219 205.023438 C 253.214844 205.113281 253.855469 205.15625 254.488281 205.15625 C 261.863281 205.15625 268.570312 199.410156 269.160156 195.171875 C 269.898438 189.863281 262.191406 186.324219 254.71875 185.285156 M 456.5 185.453125 C 455.917969 181.289062 448.511719 180.105469 441.488281 181.082031 C 434.46875 182.058594 427.664062 185.226562 428.230469 189.398438 C 428.6875 192.640625 434.542969 198.175781 441.476562 198.175781 C 442.0625 198.175781 442.652344 198.136719 443.246094 198.054688 C 447.875 197.414062 451.269531 194.476562 452.882812 192.78125 C 455.339844 190.199219 456.761719 187.324219 456.5 185.453125 "/>
<path style=" stroke:none;fill-rule:nonzero;fill:rgb(100%,100%,100%);fill-opacity:1;" d="M 572.277344 363.691406 C 569.699219 355.898438 561.40625 353.394531 547.621094 356.238281 C 506.703125 364.683594 492.046875 358.835938 487.238281 355.289062 C 519.042969 306.835938 545.210938 248.261719 559.324219 193.617188 C 566.011719 167.730469 569.703125 143.6875 570.007812 124.09375 C 570.339844 102.585938 566.675781 86.78125 559.121094 77.128906 C 528.664062 38.207031 483.960938 17.328125 429.84375 16.757812 C 392.644531 16.339844 361.210938 25.859375 355.117188 28.535156 C 342.285156 25.34375 328.296875 23.386719 313.066406 23.136719 C 285.140625 22.683594 261 29.371094 241.011719 43 C 232.332031 39.769531 209.894531 32.066406 182.457031 27.644531 C 135.019531 20.007812 97.324219 25.796875 70.425781 44.851562 C 38.328125 67.59375 23.507812 108.242188 26.378906 165.671875 C 27.34375 184.992188 38.355469 244.425781 55.726562 301.347656 C 78.59375 376.265625 103.453125 418.675781 129.609375 427.402344 C 132.671875 428.421875 136.199219 429.136719 140.09375 429.136719 C 149.632812 429.136719 161.332031 424.835938 173.503906 410.203125 C 188.347656 392.398438 203.703125 375.019531 219.550781 358.101562 C 229.832031 363.617188 241.128906 366.699219 252.679688 367.007812 C 252.703125 367.3125 252.730469 367.613281 252.757812 367.914062 C 250.769531 370.285156 248.824219 372.691406 246.917969 375.128906 C 238.914062 385.289062 237.246094 387.40625 211.480469 392.710938 C 204.152344 394.226562 184.6875 398.238281 184.398438 411.882812 C 184.089844 426.789062 207.410156 433.050781 210.066406 433.714844 C 219.328125 436.035156 228.246094 437.175781 236.753906 437.175781 C 257.441406 437.175781 275.648438 430.378906 290.199219 417.21875 C 289.753906 470.371094 291.96875 522.742188 298.351562 538.699219 C 303.578125 551.761719 316.34375 583.6875 356.675781 583.6875 C 362.59375 583.6875 369.109375 582.996094 376.273438 581.460938 C 418.367188 572.4375 436.648438 553.835938 443.71875 512.816406 C 447.503906 490.898438 453.996094 438.554688 457.050781 410.476562 C 463.496094 412.488281 471.792969 413.410156 480.761719 413.40625 C 499.472656 413.40625 521.0625 409.433594 534.601562 403.148438 C 549.808594 396.085938 577.253906 378.753906 572.277344 363.691406 Z M 472.035156 173.964844 C 471.898438 182.253906 470.757812 189.78125 469.546875 197.632812 C 468.246094 206.082031 466.898438 214.816406 466.5625 225.417969 C 466.226562 235.738281 467.515625 246.464844 468.761719 256.839844 C 471.28125 277.792969 473.863281 299.367188 463.863281 320.652344 C 462.199219 317.707031 460.71875 314.664062 459.429688 311.539062 C 458.1875 308.527344 455.488281 303.6875 451.746094 296.988281 C 437.203125 270.90625 403.148438 209.828125 420.582031 184.90625 C 425.773438 177.488281 438.953125 169.859375 472.035156 173.964844 Z M 431.9375 33.539062 C 480.421875 34.613281 518.777344 52.75 545.933594 87.449219 C 566.757812 114.066406 543.824219 235.171875 477.433594 339.652344 C 476.765625 338.804688 476.09375 337.957031 475.417969 337.113281 L 474.578125 336.0625 C 491.734375 307.730469 488.378906 279.695312 485.394531 254.839844 C 484.164062 244.640625 483.007812 235.007812 483.300781 225.957031 C 483.605469 216.367188 484.875 208.136719 486.101562 200.183594 C 487.609375 190.382812 489.144531 180.238281 488.71875 168.28125 C 489.035156 167.027344 489.164062 165.546875 488.996094 163.785156 C 487.917969 152.320312 474.828125 118.003906 448.144531 86.945312 C 433.550781 69.957031 412.265625 50.945312 383.203125 38.121094 C 395.703125 35.53125 412.796875 33.117188 431.9375 33.539062 Z M 160.621094 399.496094 C 147.214844 415.617188 137.953125 412.527344 134.910156 411.511719 C 115.066406 404.894531 92.046875 362.960938 71.746094 296.460938 C 54.183594 238.917969 43.921875 181.058594 43.105469 164.832031 C 40.542969 113.519531 52.980469 77.757812 80.078125 58.539062 C 124.179688 27.265625 196.683594 45.984375 225.816406 55.476562 C 225.398438 55.890625 224.964844 56.277344 224.550781 56.699219 C 176.742188 104.980469 177.875 187.46875 177.992188 192.511719 C 177.988281 194.460938 178.152344 197.214844 178.375 201.003906 C 179.199219 214.878906 180.730469 240.699219 176.636719 269.941406 C 172.839844 297.117188 181.214844 323.714844 199.617188 342.917969 C 201.507812 344.886719 203.492188 346.757812 205.566406 348.527344 C 197.375 357.300781 179.574219 376.699219 160.621094 399.496094 Z M 211.710938 331.328125 C 196.878906 315.851562 190.144531 294.324219 193.226562 272.261719 C 197.546875 241.371094 195.953125 214.464844 195.09375 200.011719 C 194.976562 197.988281 194.867188 196.214844 194.808594 194.816406 C 201.789062 188.625 234.15625 171.285156 257.238281 176.574219 C 267.769531 178.984375 274.1875 186.15625 276.855469 198.492188 C 290.664062 262.363281 278.683594 288.984375 269.058594 310.378906 C 267.074219 314.785156 265.199219 318.949219 263.597656 323.257812 L 262.355469 326.589844 C 259.214844 335.011719 256.292969 342.84375 254.480469 350.28125 C 238.714844 350.238281 223.375 343.5 211.710938 331.328125 Z M 214.132812 417.464844 C 209.527344 416.316406 205.386719 414.316406 202.957031 412.660156 C 204.988281 411.707031 208.597656 410.40625 214.863281 409.117188 C 245.171875 402.878906 249.855469 398.472656 260.078125 385.492188 C 262.421875 382.515625 265.078125 379.144531 268.757812 375.035156 L 268.761719 375.03125 C 274.242188 368.894531 276.746094 369.933594 281.292969 371.820312 C 284.976562 373.34375 288.566406 377.960938 290.019531 383.042969 C 290.710938 385.441406 291.480469 389.996094 288.953125 393.542969 C 267.597656 423.441406 236.480469 423.058594 214.132812 417.464844 Z M 372.765625 565.085938 C 335.683594 573.03125 322.554688 554.109375 313.902344 532.480469 C 308.316406 518.515625 305.574219 455.546875 307.519531 386.007812 C 307.546875 385.085938 307.414062 384.191406 307.160156 383.351562 C 306.929688 381.691406 306.585938 380.046875 306.121094 378.4375 C 303.226562 368.316406 296.171875 359.855469 287.703125 356.34375 C 284.339844 354.953125 278.167969 352.394531 270.75 354.292969 C 272.332031 347.773438 275.074219 340.414062 278.050781 332.441406 L 279.296875 329.089844 C 280.703125 325.3125 282.464844 321.394531 284.328125 317.25 C 294.40625 294.867188 308.203125 264.210938 293.226562 194.953125 C 287.617188 169.011719 268.886719 156.34375 240.492188 159.289062 C 223.46875 161.050781 207.894531 167.917969 200.125 171.855469 C 198.453125 172.703125 196.925781 173.519531 195.5 174.316406 C 197.667969 148.179688 205.859375 99.335938 236.5 68.429688 C 255.792969 48.976562 281.488281 39.367188 312.789062 39.882812 C 374.472656 40.894531 414.027344 72.546875 436.351562 98.925781 C 455.585938 121.65625 466.003906 144.554688 470.160156 156.90625 C 438.898438 153.726562 417.636719 159.894531 406.859375 175.304688 C 383.410156 208.824219 419.6875 273.878906 437.121094 305.144531 C 440.316406 310.871094 443.078125 315.824219 443.945312 317.929688 C 449.621094 331.6875 456.972656 340.875 462.339844 347.578125 C 463.984375 349.632812 465.578125 351.628906 466.792969 353.367188 C 457.324219 356.097656 440.316406 362.40625 441.867188 393.929688 C 440.617188 409.746094 431.730469 483.808594 427.214844 509.972656 C 421.253906 544.539062 408.53125 557.414062 372.765625 565.085938 Z M 527.546875 387.957031 C 517.867188 392.449219 501.664062 395.820312 486.273438 396.546875 C 469.273438 397.339844 460.617188 394.640625 458.582031 392.980469 C 457.628906 373.335938 464.9375 371.28125 472.675781 369.109375 C 473.894531 368.769531 475.078125 368.433594 476.226562 368.035156 C 476.9375 368.613281 477.714844 369.1875 478.570312 369.753906 C 492.234375 378.769531 516.605469 379.742188 551.011719 372.640625 L 551.386719 372.566406 C 546.746094 376.90625 538.808594 382.726562 527.546875 387.957031 Z M 527.546875 387.957031 "/>
</g>
</svg>
