<?xml version="1.0" encoding="UTF-8"?>
<svg xmlns="http://www.w3.org/2000/svg" xmlns:xlink="http://www.w3.org/1999/xlink" width="px" height="px" viewBox="0 0 600 600" version="1.1">
<defs>
<linearGradient id="linear0" gradientUnits="userSpaceOnUse" x1="12.4809" y1="2" x2="12.4809" y2="22.7407" gradientTransform="matrix(18.75,0,0,18.75,0,0)">
<stop offset="0" style="stop-color:rgb(19.607843%,49.411765%,74.117647%);stop-opacity:1;"/>
<stop offset="1" style="stop-color:rgb(8.235294%,39.607843%,65.490196%);stop-opacity:1;"/>
</linearGradient>
<linearGradient id="linear1" gradientUnits="userSpaceOnUse" x1="19.518999" y1="9.25928" x2="19.518999" y2="30" gradientTransform="matrix(18.75,0,0,18.75,0,0)">
<stop offset="0" style="stop-color:rgb(100%,85.490196%,29.411765%);stop-opacity:1;"/>
<stop offset="1" style="stop-color:rgb(97.647059%,77.647059%,0%);stop-opacity:1;"/>
</linearGradient>
</defs>
<g id="surface1">
<path style=" stroke:none;fill-rule:evenodd;fill:url(#linear0);" d="M 244.058594 37.5 C 202.863281 37.5 169.46875 69.835938 169.46875 109.722656 L 169.46875 159.722656 L 298.566406 159.722656 L 298.566406 173.609375 L 112.089844 173.609375 C 70.894531 173.609375 37.5 205.945312 37.5 245.832031 L 37.5 354.167969 C 37.5 394.054688 70.894531 426.386719 112.089844 426.386719 L 155.121094 426.386719 L 155.121094 365.277344 C 155.121094 325.390625 188.519531 293.054688 229.714844 293.054688 L 367.417969 293.054688 C 402.277344 293.054688 430.53125 265.695312 430.53125 231.945312 L 430.53125 109.722656 C 430.53125 69.835938 397.136719 37.5 355.941406 37.5 Z M 226.84375 126.390625 C 241.105469 126.390625 252.664062 115.195312 252.664062 101.390625 C 252.664062 87.582031 241.105469 76.390625 226.84375 76.390625 C 212.582031 76.390625 201.023438 87.582031 201.023438 101.390625 C 201.023438 115.195312 212.582031 126.390625 226.84375 126.390625 Z M 226.84375 126.390625 "/>
<path style=" stroke:none;fill-rule:evenodd;fill:url(#linear1);" d="M 355.9375 562.5 C 397.132812 562.5 430.53125 530.164062 430.53125 490.277344 L 430.53125 440.277344 L 301.429688 440.277344 L 301.429688 426.390625 L 487.90625 426.390625 C 529.101562 426.390625 562.496094 394.054688 562.496094 354.167969 L 562.496094 245.832031 C 562.496094 205.945312 529.101562 173.613281 487.90625 173.613281 L 444.875 173.613281 L 444.875 234.722656 C 444.875 274.609375 411.476562 306.945312 370.285156 306.945312 L 232.578125 306.945312 C 197.71875 306.945312 169.464844 334.304688 169.464844 368.054688 L 169.464844 490.277344 C 169.464844 530.164062 202.859375 562.5 244.054688 562.5 Z M 373.152344 473.613281 C 358.890625 473.613281 347.332031 484.804688 347.332031 498.609375 C 347.332031 512.417969 358.890625 523.609375 373.152344 523.609375 C 387.414062 523.609375 398.972656 512.417969 398.972656 498.609375 C 398.972656 484.804688 387.414062 473.613281 373.152344 473.613281 Z M 373.152344 473.613281 "/>
</g>
</svg>
