<?xml version="1.0" encoding="UTF-8"?>
<svg xmlns="http://www.w3.org/2000/svg" xmlns:xlink="http://www.w3.org/1999/xlink" width="px" height="px" viewBox="0 0 600 600" version="1.1">
<g id="surface1">
<path style=" stroke:none;fill-rule:nonzero;fill:rgb(0%,73.725492%,94.901961%);fill-opacity:1;" d="M 264.382812 599.617188 C 208.21875 595.570312 152.710938 581.429688 118.667969 562.503906 C 99.273438 551.726562 84.5 538.476562 78.703125 526.671875 L 75.253906 519.644531 L 75.253906 78.9375 L 77.984375 73.394531 C 90.183594 48.632812 129.109375 26.308594 183.445312 12.914062 C 201.890625 8.367188 228.519531 3.835938 250.242188 1.554688 C 272.425781 -0.777344 331.222656 -0.421875 353.351562 2.179688 C 412.160156 9.089844 462.203125 24.558594 493.046875 45.359375 C 504.9375 53.382812 517.140625 66.21875 521.277344 75.054688 L 524.820312 82.628906 L 524.519531 302.316406 L 524.214844 522.007812 L 521.371094 527.789062 C 519.804688 530.964844 515.078125 537.222656 510.863281 541.6875 C 485.222656 568.871094 430.214844 588.980469 358.066406 597.546875 C 343.359375 599.296875 279.472656 600.707031 264.382812 599.621094 Z M 367.882812 410.800781 C 367.667969 410.238281 359.273438 402.757812 349.226562 394.179688 C 339.179688 385.601562 330.527344 378.179688 330 377.683594 C 329.472656 377.191406 331.328125 375.449219 334.125 373.808594 C 336.921875 372.167969 342.28125 367.605469 346.035156 363.671875 C 357.011719 352.160156 362.1875 337.945312 362.1875 319.324219 C 362.1875 300.992188 356.601562 286.199219 345.417969 274.90625 C 334.140625 263.527344 321.199219 258.636719 302.347656 258.636719 C 273.289062 258.636719 250.972656 275.59375 243.847656 303.082031 C 241.398438 312.535156 241.410156 331.640625 243.875 340.027344 C 250.296875 361.894531 267.792969 377.777344 289.566406 381.507812 C 296.933594 382.769531 297.933594 383.3125 302.957031 388.804688 C 305.941406 392.070312 312.066406 398.582031 316.570312 403.28125 L 324.753906 411.824219 L 346.515625 411.824219 C 358.484375 411.824219 368.101562 411.363281 367.882812 410.800781 Z M 293.257812 349.871094 C 288.019531 347.140625 286.035156 345.019531 283.050781 338.949219 C 280.742188 334.257812 280.347656 331.589844 280.320312 320.503906 C 280.296875 309.238281 280.65625 306.800781 283.0625 301.910156 C 287.003906 293.90625 292.4375 290.117188 300.839844 289.507812 C 312.535156 288.660156 319.285156 294.398438 322.824219 308.195312 C 327.164062 325.109375 322.394531 343.089844 311.984375 349.058594 C 306.523438 352.1875 298.378906 352.542969 293.257812 349.871094 Z M 196.800781 381.265625 C 219.617188 376.941406 232.566406 363.671875 232.566406 344.625 C 232.566406 327.726562 224.207031 317.882812 201.097656 307.5625 C 187.867188 301.660156 183.074219 297.953125 183.074219 293.621094 C 183.074219 290.03125 187.625 286.097656 192.917969 285.109375 C 198.085938 284.144531 211.792969 286.523438 219.890625 289.796875 L 226.675781 292.535156 L 226.675781 262.492188 L 219.3125 260.859375 C 214.757812 259.851562 205.195312 259.246094 194.269531 259.277344 C 178.796875 259.277344 175.765625 259.652344 169.945312 261.964844 C 152.933594 268.71875 144.863281 280.21875 144.992188 297.523438 C 145.113281 313.722656 153.65625 323.828125 174.925781 332.917969 C 187.472656 338.28125 192.503906 342.363281 192.503906 347.191406 C 192.503906 357.445312 175.414062 358.707031 157.324219 349.789062 C 152.367188 347.34375 147.917969 345.148438 147.429688 344.90625 C 146.945312 344.660156 146.546875 351.679688 146.546875 360.496094 C 146.546875 376.460938 146.5625 376.539062 149.453125 377.636719 C 160.339844 381.777344 184.394531 383.621094 196.800781 381.265625 Z M 457.636719 366.457031 L 457.636719 352.90625 L 416.394531 352.90625 L 416.394531 259.816406 L 379.863281 259.816406 L 379.863281 380.007812 L 457.636719 380.007812 Z M 330.371094 128.988281 C 366.667969 126.46875 393.875 121.714844 417.816406 113.710938 C 441.667969 105.738281 455.757812 96.085938 458.910156 85.566406 C 460.121094 81.515625 460.035156 79.976562 458.339844 75.53125 C 450.730469 55.609375 408.222656 40.300781 343.269531 34.09375 C 315.484375 31.4375 264.953125 32.300781 238.460938 35.878906 C 198.039062 41.339844 165.234375 51.484375 150.644531 63.035156 C 121.140625 86.398438 152.34375 112.097656 224.910156 124.195312 C 256.371094 129.441406 297.136719 131.292969 330.371094 128.988281 Z M 330.371094 128.988281 "/>
</g>
</svg>
