<?xml version="1.0" encoding="UTF-8"?>
<svg xmlns="http://www.w3.org/2000/svg" xmlns:xlink="http://www.w3.org/1999/xlink" width="px" height="px" viewBox="0 0 600 600" version="1.1">
<g id="surface1">
<path style=" stroke:none;fill-rule:nonzero;fill:rgb(43.921569%,60.000002%,65.098041%);fill-opacity:1;" d="M 290.460938 33.03125 L 290.460938 60.3125 L 241.660156 60.3125 L 241.660156 78.058594 L 290.460938 78.058594 L 290.460938 132.402344 L 309.535156 132.402344 L 309.535156 78.058594 L 359.554688 78.058594 L 359.554688 60.3125 L 309.535156 60.3125 L 309.535156 5.859375 L 290.460938 5.859375 Z M 290.460938 33.03125 "/>
<path style=" stroke:none;fill-rule:nonzero;fill:rgb(92.156863%,56.862748%,17.254902%);fill-opacity:1;" d="M 130.980469 102.234375 L 130.980469 141.828125 L 57.117188 141.828125 L 57.117188 166.671875 L 130.980469 166.671875 L 130.980469 247.078125 L 158.371094 247.078125 L 158.371094 166.671875 L 233.34375 166.671875 L 233.34375 141.828125 L 158.371094 141.828125 L 158.371094 62.644531 L 130.980469 62.644531 Z M 130.980469 102.234375 "/>
<path style=" stroke:none;fill-rule:nonzero;fill:rgb(34.901962%,52.941179%,60.784316%);fill-opacity:1;" d="M 440.515625 102.234375 L 440.515625 141.828125 L 366.652344 141.828125 L 366.652344 167.890625 L 440.515625 167.890625 L 440.515625 247.078125 L 469.015625 247.078125 L 469.015625 167.890625 L 542.878906 167.890625 L 542.878906 141.828125 L 469.015625 141.828125 L 469.015625 62.644531 L 440.515625 62.644531 Z M 440.515625 102.234375 "/>
<path style=" stroke:none;fill-rule:nonzero;fill:rgb(90.980393%,46.27451%,17.254902%);fill-opacity:1;" d="M 283.363281 237.097656 L 283.363281 281.457031 L 201.179688 281.457031 L 201.179688 314.507812 L 283.363281 314.507812 L 283.363281 403.230469 L 316.632812 403.230469 L 316.632812 314.507812 L 398.8125 314.507812 L 398.8125 281.457031 L 316.632812 281.457031 L 316.632812 192.734375 L 283.363281 192.734375 Z M 283.363281 237.097656 "/>
<path style=" stroke:none;fill-rule:nonzero;fill:rgb(35.686275%,39.607844%,56.862748%);fill-opacity:1;" d="M 525.023438 259.5 L 525.023438 287.335938 L 475.003906 287.335938 L 475.003906 309.847656 L 525.023438 309.847656 L 525.023438 365.414062 L 549.976562 365.414062 L 549.976562 309.847656 L 599.996094 309.847656 L 599.996094 287.335938 L 549.976562 287.335938 L 549.976562 231.773438 L 525.023438 231.773438 Z M 525.023438 259.5 "/>
<path style=" stroke:none;fill-rule:nonzero;fill:rgb(43.921569%,60.000002%,65.098041%);fill-opacity:1;" d="M 48.796875 261.9375 L 48.796875 288.554688 L 0 288.554688 L 0 307.410156 L 48.796875 307.410156 L 48.796875 360.644531 L 67.875 360.644531 L 67.875 307.410156 L 117.890625 305.636719 L 117.890625 288.554688 L 67.875 288.554688 L 67.875 235.320312 L 48.796875 235.320312 Z M 48.796875 261.9375 "/>
<path style=" stroke:none;fill-rule:nonzero;fill:rgb(78.039217%,12.54902%,20.784314%);fill-opacity:1;" d="M 130.980469 387.261719 L 130.980469 426.855469 L 57.117188 426.855469 L 57.117188 452.917969 L 130.980469 452.917969 L 130.980469 532.101562 L 159.480469 532.101562 L 159.480469 452.917969 L 233.34375 452.917969 L 233.34375 426.855469 L 159.480469 426.855469 L 159.480469 347.667969 L 130.980469 347.667969 Z M 130.980469 387.261719 "/>
<path style=" stroke:none;fill-rule:nonzero;fill:rgb(12.156863%,26.666668%,49.411765%);fill-opacity:1;" d="M 440.515625 387.261719 L 440.515625 426.855469 L 366.652344 426.855469 L 366.652344 451.695312 L 440.515625 451.695312 L 440.515625 532.101562 L 469.015625 532.101562 L 469.015625 451.695312 L 542.878906 451.695312 L 542.878906 426.855469 L 469.015625 426.855469 L 469.015625 347.667969 L 440.515625 347.667969 Z M 440.515625 387.261719 "/>
<path style=" stroke:none;fill-rule:nonzero;fill:rgb(35.686275%,39.607844%,56.862748%);fill-opacity:1;" d="M 288.128906 487.851562 L 288.128906 515.578125 L 238.113281 515.578125 L 238.113281 538.089844 L 288.128906 538.089844 L 288.128906 593.65625 L 313.085938 593.65625 L 313.085938 538.089844 L 363.101562 538.089844 L 363.101562 515.578125 L 313.085938 515.578125 L 313.085938 460.015625 L 288.128906 460.015625 Z M 288.128906 487.851562 "/>
</g>
</svg>
